# Blender 3.4.1
# www.blender.org
mtllib arrow.mtl
o Cylinder
v 0.009581 0.795295 -0.257637
v 0.009581 1.594029 -0.257637
v 0.064282 0.795295 -0.252687
v 0.064282 1.594029 -0.252687
v 0.116881 0.795295 -0.238026
v 0.116881 1.594029 -0.238026
v 0.165356 0.795295 -0.214218
v 0.165356 1.594029 -0.214218
v 0.207845 0.795295 -0.182177
v 0.207845 1.594029 -0.182177
v 0.242715 0.795295 -0.143136
v 0.242715 1.594029 -0.143136
v 0.268625 0.795295 -0.098594
v 0.268625 1.594029 -0.098594
v 0.284581 0.795295 -0.050263
v 0.284581 1.594029 -0.050263
v 0.289968 0.795295 0.000000
v 0.289968 1.594029 0.000000
v 0.284581 0.795295 0.050263
v 0.284581 1.594029 0.050263
v 0.268625 0.795295 0.098594
v 0.268625 1.594029 0.098594
v 0.242715 0.795295 0.143136
v 0.242715 1.594029 0.143136
v 0.207845 0.795295 0.182177
v 0.207845 1.594029 0.182177
v 0.165356 0.795295 0.214218
v 0.165356 1.594029 0.214218
v 0.116881 0.795295 0.238026
v 0.116881 1.594029 0.238026
v 0.064282 0.795295 0.252687
v 0.064282 1.594029 0.252687
v 0.009581 0.795295 0.257637
v 0.009581 1.594029 0.257637
v -0.045120 0.795295 0.252687
v -0.045120 1.594029 0.252687
v -0.097719 0.795295 0.238026
v -0.097719 1.594029 0.238026
v -0.146194 0.795295 0.214218
v -0.146194 1.594029 0.214218
v -0.188683 0.795295 0.182177
v -0.188683 1.594029 0.182177
v -0.223553 0.795295 0.143136
v -0.223553 1.594029 0.143136
v -0.249463 0.795295 0.098594
v -0.249463 1.594029 0.098594
v -0.265419 0.795295 0.050263
v -0.265419 1.594029 0.050263
v -0.270807 0.795295 0.000000
v -0.270807 1.594029 0.000000
v -0.265419 0.795295 -0.050263
v -0.265419 1.594029 -0.050263
v -0.249463 0.795295 -0.098594
v -0.249463 1.594029 -0.098594
v -0.223553 0.795295 -0.143136
v -0.223553 1.594029 -0.143136
v -0.188683 0.795295 -0.182177
v -0.188683 1.594029 -0.182177
v -0.146194 0.795295 -0.214218
v -0.146194 1.594029 -0.214218
v -0.097719 0.795295 -0.238026
v -0.097719 1.594029 -0.238026
v -0.045120 0.795295 -0.252687
v -0.045120 1.594029 -0.252687
vn 0.0901 -0.0000 -0.9959
vn 0.2685 -0.0000 -0.9633
vn 0.4408 -0.0000 -0.8976
vn 0.6021 -0.0000 -0.7984
vn 0.7458 -0.0000 -0.6661
vn 0.8644 -0.0000 -0.5028
vn 0.9496 -0.0000 -0.3135
vn 0.9943 -0.0000 -0.1066
vn 0.9943 -0.0000 0.1066
vn 0.9496 -0.0000 0.3135
vn 0.8644 -0.0000 0.5028
vn 0.7458 -0.0000 0.6661
vn 0.6021 -0.0000 0.7984
vn 0.4408 -0.0000 0.8976
vn 0.2685 -0.0000 0.9633
vn 0.0901 -0.0000 0.9959
vn -0.0901 -0.0000 0.9959
vn -0.2685 -0.0000 0.9633
vn -0.4408 -0.0000 0.8976
vn -0.6021 -0.0000 0.7984
vn -0.7458 -0.0000 0.6661
vn -0.8644 -0.0000 0.5028
vn -0.9496 -0.0000 0.3135
vn -0.9943 -0.0000 0.1066
vn -0.9943 -0.0000 -0.1066
vn -0.9496 -0.0000 -0.3135
vn -0.8644 -0.0000 -0.5028
vn -0.7458 -0.0000 -0.6661
vn -0.6021 -0.0000 -0.7984
vn -0.4408 -0.0000 -0.8976
vn -0.0000 1.0000 -0.0000
vn -0.2685 -0.0000 -0.9633
vn -0.0901 -0.0000 -0.9959
vn -0.0000 -1.0000 -0.0000
vt 1.000000 0.500000
vt 0.000000 0.500000
vt 0.750000 0.490000
vt 1.000000 1.000000
vt 0.250000 0.490000
vt 0.000000 1.000000
vt 0.968750 0.500000
vt 0.796822 0.485388
vt 0.968750 1.000000
vt 0.296822 0.485388
vt 0.937500 0.500000
vt 0.841844 0.471731
vt 0.937500 1.000000
vt 0.341844 0.471731
vt 0.906250 0.500000
vt 0.883337 0.449553
vt 0.906250 1.000000
vt 0.383337 0.449553
vt 0.875000 0.500000
vt 0.919706 0.419706
vt 0.875000 1.000000
vt 0.419706 0.419706
vt 0.843750 0.500000
vt 0.949553 0.383337
vt 0.843750 1.000000
vt 0.449553 0.383337
vt 0.812500 0.500000
vt 0.971731 0.341844
vt 0.812500 1.000000
vt 0.471731 0.341844
vt 0.781250 0.500000
vt 0.985388 0.296822
vt 0.781250 1.000000
vt 0.485388 0.296822
vt 0.750000 0.500000
vt 0.990000 0.250000
vt 0.750000 1.000000
vt 0.490000 0.250000
vt 0.718750 0.500000
vt 0.985388 0.203178
vt 0.718750 1.000000
vt 0.485388 0.203178
vt 0.687500 0.500000
vt 0.971731 0.158156
vt 0.687500 1.000000
vt 0.471731 0.158156
vt 0.656250 0.500000
vt 0.949553 0.116663
vt 0.656250 1.000000
vt 0.449553 0.116663
vt 0.625000 0.500000
vt 0.919706 0.080294
vt 0.625000 1.000000
vt 0.419706 0.080294
vt 0.593750 0.500000
vt 0.883337 0.050447
vt 0.593750 1.000000
vt 0.383337 0.050447
vt 0.562500 0.500000
vt 0.841844 0.028269
vt 0.562500 1.000000
vt 0.341844 0.028269
vt 0.531250 0.500000
vt 0.796822 0.014612
vt 0.531250 1.000000
vt 0.296822 0.014612
vt 0.500000 0.500000
vt 0.750000 0.010000
vt 0.500000 1.000000
vt 0.250000 0.010000
vt 0.468750 0.500000
vt 0.703178 0.014612
vt 0.468750 1.000000
vt 0.203178 0.014612
vt 0.437500 0.500000
vt 0.658156 0.028269
vt 0.437500 1.000000
vt 0.158156 0.028269
vt 0.406250 0.500000
vt 0.616663 0.050447
vt 0.406250 1.000000
vt 0.116663 0.050447
vt 0.375000 0.500000
vt 0.580294 0.080294
vt 0.375000 1.000000
vt 0.080294 0.080294
vt 0.343750 0.500000
vt 0.550447 0.116663
vt 0.343750 1.000000
vt 0.050447 0.116663
vt 0.312500 0.500000
vt 0.528269 0.158156
vt 0.312500 1.000000
vt 0.028269 0.158156
vt 0.281250 0.500000
vt 0.514612 0.203178
vt 0.281250 1.000000
vt 0.014612 0.203178
vt 0.250000 0.500000
vt 0.510000 0.250000
vt 0.250000 1.000000
vt 0.010000 0.250000
vt 0.218750 0.500000
vt 0.514612 0.296822
vt 0.218750 1.000000
vt 0.014612 0.296822
vt 0.187500 0.500000
vt 0.528269 0.341844
vt 0.187500 1.000000
vt 0.028269 0.341844
vt 0.156250 0.500000
vt 0.550447 0.383337
vt 0.156250 1.000000
vt 0.050447 0.383337
vt 0.125000 0.500000
vt 0.580294 0.419706
vt 0.125000 1.000000
vt 0.080294 0.419706
vt 0.093750 0.500000
vt 0.616663 0.449553
vt 0.093750 1.000000
vt 0.116663 0.449553
vt 0.062500 0.500000
vt 0.658156 0.471731
vt 0.158156 0.471731
vt 0.062500 1.000000
vt 0.031250 0.500000
vt 0.703178 0.485388
vt 0.203178 0.485388
vt 0.031250 1.000000
s 0
usemtl Material
f 1/1/1 2/4/1 4/9/1 3/7/1
f 3/7/2 4/9/2 6/13/2 5/11/2
f 5/11/3 6/13/3 8/17/3 7/15/3
f 7/15/4 8/17/4 10/21/4 9/19/4
f 9/19/5 10/21/5 12/25/5 11/23/5
f 11/23/6 12/25/6 14/29/6 13/27/6
f 13/27/7 14/29/7 16/33/7 15/31/7
f 15/31/8 16/33/8 18/37/8 17/35/8
f 17/35/9 18/37/9 20/41/9 19/39/9
f 19/39/10 20/41/10 22/45/10 21/43/10
f 21/43/11 22/45/11 24/49/11 23/47/11
f 23/47/12 24/49/12 26/53/12 25/51/12
f 25/51/13 26/53/13 28/57/13 27/55/13
f 27/55/14 28/57/14 30/61/14 29/59/14
f 29/59/15 30/61/15 32/65/15 31/63/15
f 31/63/16 32/65/16 34/69/16 33/67/16
f 33/67/17 34/69/17 36/73/17 35/71/17
f 35/71/18 36/73/18 38/77/18 37/75/18
f 37/75/19 38/77/19 40/81/19 39/79/19
f 39/79/20 40/81/20 42/85/20 41/83/20
f 41/83/21 42/85/21 44/89/21 43/87/21
f 43/87/22 44/89/22 46/93/22 45/91/22
f 45/91/23 46/93/23 48/97/23 47/95/23
f 47/95/24 48/97/24 50/101/24 49/99/24
f 49/99/25 50/101/25 52/105/25 51/103/25
f 51/103/26 52/105/26 54/109/26 53/107/26
f 53/107/27 54/109/27 56/113/27 55/111/27
f 55/111/28 56/113/28 58/117/28 57/115/28
f 57/115/29 58/117/29 60/121/29 59/119/29
f 59/119/30 60/121/30 62/126/30 61/123/30
f 4/10/31 2/5/31 64/129/31 62/125/31 60/122/31 58/118/31 56/114/31 54/110/31 52/106/31 50/102/31 48/98/31 46/94/31 44/90/31 42/86/31 40/82/31 38/78/31 36/74/31 34/70/31 32/66/31 30/62/31 28/58/31 26/54/31 24/50/31 22/46/31 20/42/31 18/38/31 16/34/31 14/30/31 12/26/31 10/22/31 8/18/31 6/14/31
f 61/123/32 62/126/32 64/130/32 63/127/32
f 63/127/33 64/130/33 2/6/33 1/2/33
f 1/3/34 3/8/34 5/12/34 7/16/34 9/20/34 11/24/34 13/28/34 15/32/34 17/36/34 19/40/34 21/44/34 23/48/34 25/52/34 27/56/34 29/60/34 31/64/34 33/68/34 35/72/34 37/76/34 39/80/34 41/84/34 43/88/34 45/92/34 47/96/34 49/100/34 51/104/34 53/108/34 55/112/34 57/116/34 59/120/34 61/124/34 63/128/34
o Cone
v 0.006104 1.590384 -0.487264
v 0.060204 1.590384 -0.477901
v 0.112226 1.590384 -0.450173
v 0.160169 1.590384 -0.405145
v 0.202192 1.590384 -0.344548
v 0.236679 1.590384 -0.270709
v 0.262305 1.590384 -0.186468
v 0.278086 1.590384 -0.095060
v 0.283414 1.590384 0.000000
v 0.278086 1.590384 0.095060
v 0.262305 1.590384 0.186468
v 0.236679 1.590384 0.270709
v 0.202192 1.590384 0.344548
v 0.160169 1.590384 0.405145
v 0.112226 1.590384 0.450173
v 0.060204 1.590384 0.477901
v 0.006104 1.590384 0.487264
v -0.047997 1.590384 0.477901
v -0.100018 1.590384 0.450173
v -0.147962 1.590384 0.405145
v -0.189984 1.590384 0.344548
v -0.224471 1.590384 0.270709
v -0.250098 1.590384 0.186468
v -0.265878 1.590384 0.095060
v -0.271207 1.590384 0.000000
v -0.265878 1.590384 -0.095060
v -0.250098 1.590384 -0.186468
v -0.224471 1.590384 -0.270709
v -0.189984 1.590384 -0.344548
v -0.147962 1.590384 -0.405145
v -0.100018 1.590384 -0.450173
v -0.047997 1.590384 -0.477901
v 0.006104 2.595732 0.000000
vn 0.1539 0.4310 -0.8892
vn 0.4298 0.4064 -0.8063
vn 0.6359 0.3703 -0.6771
vn 0.7743 0.3350 -0.5369
vn 0.8625 0.3063 -0.4028
vn 0.9169 0.2854 -0.2789
vn 0.9483 0.2720 -0.1637
vn 0.9626 0.2655 -0.0540
vn 0.9626 0.2655 0.0540
vn 0.9483 0.2720 0.1637
vn 0.9169 0.2854 0.2789
vn 0.8625 0.3063 0.4028
vn 0.7743 0.3350 0.5369
vn 0.6359 0.3703 0.6771
vn 0.4298 0.4064 0.8063
vn 0.1539 0.4310 0.8892
vn -0.1539 0.4310 0.8892
vn -0.4298 0.4064 0.8063
vn -0.6359 0.3703 0.6771
vn -0.7743 0.3350 0.5369
vn -0.8625 0.3063 0.4028
vn -0.9169 0.2854 0.2789
vn -0.9483 0.2720 0.1637
vn -0.9626 0.2655 0.0540
vn -0.9626 0.2655 -0.0540
vn -0.9483 0.2720 -0.1637
vn -0.9169 0.2854 -0.2789
vn -0.8625 0.3063 -0.4028
vn -0.7743 0.3350 -0.5369
vn -0.6359 0.3703 -0.6771
vn -0.0000 -1.0000 -0.0000
vn -0.4298 0.4064 -0.8063
vn -0.1539 0.4310 -0.8892
vt 0.750000 0.490000
vt 0.250000 0.490000
vt 0.296822 0.485388
vt 0.796822 0.485388
vt 0.341844 0.471731
vt 0.841844 0.471731
vt 0.383337 0.449553
vt 0.883337 0.449553
vt 0.419706 0.419706
vt 0.919706 0.419706
vt 0.449553 0.383337
vt 0.949553 0.383337
vt 0.471731 0.341844
vt 0.971731 0.341844
vt 0.485388 0.296822
vt 0.985388 0.296822
vt 0.490000 0.250000
vt 0.990000 0.250000
vt 0.485388 0.203178
vt 0.985388 0.203178
vt 0.471731 0.158156
vt 0.971731 0.158156
vt 0.449553 0.116663
vt 0.949553 0.116663
vt 0.419706 0.080294
vt 0.919706 0.080294
vt 0.383337 0.050447
vt 0.883337 0.050447
vt 0.341844 0.028269
vt 0.841844 0.028269
vt 0.296822 0.014612
vt 0.796822 0.014612
vt 0.250000 0.010000
vt 0.750000 0.010000
vt 0.203178 0.014612
vt 0.703178 0.014612
vt 0.158156 0.028269
vt 0.658156 0.028269
vt 0.116663 0.050447
vt 0.616663 0.050447
vt 0.080294 0.080294
vt 0.580294 0.080294
vt 0.050447 0.116663
vt 0.550447 0.116663
vt 0.028269 0.158156
vt 0.528269 0.158156
vt 0.014612 0.203178
vt 0.514612 0.203178
vt 0.010000 0.250000
vt 0.510000 0.250000
vt 0.014612 0.296822
vt 0.514612 0.296822
vt 0.028269 0.341844
vt 0.528269 0.341844
vt 0.050447 0.383337
vt 0.550447 0.383337
vt 0.080294 0.419706
vt 0.580294 0.419706
vt 0.116663 0.449553
vt 0.616663 0.449553
vt 0.658156 0.471731
vt 0.158156 0.471731
vt 0.703178 0.485388
vt 0.203178 0.485388
vt 0.250000 0.250000
s 0
usemtl Material
f 65/132/35 97/195/35 66/133/35
f 66/133/36 97/195/36 67/135/36
f 67/135/37 97/195/37 68/137/37
f 68/137/38 97/195/38 69/139/38
f 69/139/39 97/195/39 70/141/39
f 70/141/40 97/195/40 71/143/40
f 71/143/41 97/195/41 72/145/41
f 72/145/42 97/195/42 73/147/42
f 73/147/43 97/195/43 74/149/43
f 74/149/44 97/195/44 75/151/44
f 75/151/45 97/195/45 76/153/45
f 76/153/46 97/195/46 77/155/46
f 77/155/47 97/195/47 78/157/47
f 78/157/48 97/195/48 79/159/48
f 79/159/49 97/195/49 80/161/49
f 80/161/50 97/195/50 81/163/50
f 81/163/51 97/195/51 82/165/51
f 82/165/52 97/195/52 83/167/52
f 83/167/53 97/195/53 84/169/53
f 84/169/54 97/195/54 85/171/54
f 85/171/55 97/195/55 86/173/55
f 86/173/56 97/195/56 87/175/56
f 87/175/57 97/195/57 88/177/57
f 88/177/58 97/195/58 89/179/58
f 89/179/59 97/195/59 90/181/59
f 90/181/60 97/195/60 91/183/60
f 91/183/61 97/195/61 92/185/61
f 92/185/62 97/195/62 93/187/62
f 93/187/63 97/195/63 94/189/63
f 94/189/64 97/195/64 95/192/64
f 65/131/65 66/134/65 67/136/65 68/138/65 69/140/65 70/142/65 71/144/65 72/146/65 73/148/65 74/150/65 75/152/65 76/154/65 77/156/65 78/158/65 79/160/65 80/162/65 81/164/65 82/166/65 83/168/65 84/170/65 85/172/65 86/174/65 87/176/65 88/178/65 89/180/65 90/182/65 91/184/65 92/186/65 93/188/65 94/190/65 95/191/65 96/193/65
f 95/192/66 97/195/66 96/194/66
f 96/194/67 97/195/67 65/132/67
